Land_normalized_Motion_pl05
version=1
nRows=10
nColumns=43
inDegrees=yes
endheader
time		pelvis_tilt		pelvis_list		pelvis_rotation		pelvis_tx		pelvis_ty		pelvis_tz		hip_flexion_r		hip_adduction_r		hip_rotation_r		knee_angle_r		ankle_angle_r		subtalar_angle_r		mtp_angle_r		hip_flexion_l		hip_adduction_l		hip_rotation_l		knee_angle_l		ankle_angle_l		subtalar_angle_l		mtp_angle_l		lumbar_extension		lumbar_bending		lumbar_rotation		neck_flexion		neck_lateral_bending		neck_rotation		arm_flex_r		arm_add_r		arm_rot_r		elbow_flex_r		pro_sup_r		wrist_flex_r		wrist_dev_r		hand_finger_flex_r		arm_flex_l		arm_add_l		arm_rot_l		elbow_flex_l		pro_sup_l		wrist_flex_l		wrist_dev_l		hand_finger_flex_l		
1.290000		-2.882561		13.621577		93.816736		0.000525		0.676926		0.447238		50.406565		-5.859249		-4.411700		-97.324552		15.268987		-8.946986		15.027228		46.146855		3.232431		-3.048114		-89.924103		24.423244		-16.763943		14.355006		-53.756076		-1.467735		-4.764157		-5.796020		2.608917		-1.786678		-23.359652		-44.346265		-23.655463		68.018481		84.925692		-26.650036		4.287480		41.318464		-24.627553		-45.796514		-20.769649		72.798571		114.472526		-19.096996		8.793092		90.000210		
1.292652		-2.935509		13.910158		93.838583		0.000272		0.670804		0.446422		51.131253		-5.815723		-4.186697		-98.881122		15.034593		-9.140585		15.147757		46.819341		3.390650		-2.949924		-91.580556		24.425803		-16.851151		14.376669		-54.740383		-1.405739		-4.808997		-4.442445		2.628308		-1.868369		-20.501762		-44.993160		-22.736399		68.187330		85.144087		-26.704002		4.239286		41.196104		-21.823179		-46.141101		-20.101971		72.900843		114.634280		-19.121592		8.846236		90.000210		
1.295303		-3.035232		14.215513		93.796977		0.000257		0.664997		0.445449		51.866386		-5.723312		-3.840352		-100.393729		14.201979		-9.462262		15.602894		47.401039		3.484517		-2.964997		-93.145569		24.179021		-16.957140		14.452877		-55.583526		-1.464552		-4.899837		-3.883093		2.667619		-2.059193		-17.321807		-45.733828		-21.156139		68.091752		85.672527		-27.098565		4.174027		41.052340		-18.938806		-46.629591		-19.057721		72.849208		115.145976		-19.157050		9.253782		90.000210		
1.297955		-3.242444		14.391116		93.675800		0.000379		0.659052		0.444541		52.769741		-5.604369		-3.305975		-101.871979		13.467271		-9.862042		17.029301		48.042894		3.565587		-3.182312		-94.560997		24.112225		-17.083061		14.788464		-56.391704		-1.693818		-5.049362		-2.858155		2.788077		-2.055040		-14.105494		-46.295578		-19.603333		68.051530		86.236783		-27.937314		3.902216		41.223651		-16.229963		-46.900930		-18.426443		73.145674		115.920876		-19.344219		10.115650		90.000210		
1.300606		-3.317008		14.712832		93.681484		0.000325		0.653628		0.443596		53.392066		-5.545982		-3.001104		-103.259811		13.089660		-9.732742		17.197851		48.472932		3.642518		-3.184743		-95.906016		24.188029		-17.040918		14.880343		-57.339754		-1.692781		-5.035507		-1.831523		2.857507		-2.250033		-11.061954		-46.713478		-18.542371		68.079436		86.430062		-27.845538		3.872095		41.166984		-13.202568		-47.139359		-17.539153		73.235966		116.140659		-19.279553		10.014478		90.000210		
1.303258		-3.463078		15.107898		93.607420		0.000493		0.648445		0.442499		53.954940		-5.429136		-2.545098		-104.644121		12.467280		-9.580533		17.581074		48.754509		3.645872		-3.348726		-97.184082		24.218181		-16.979380		15.068235		-58.215338		-1.845559		-5.020260		-1.476232		2.949183		-2.510872		-7.803525		-47.191324		-16.972722		67.838203		86.902555		-27.915795		3.803124		41.086189		-10.050980		-47.510931		-16.248624		73.203703		116.675435		-19.100625		9.992115		90.000210		
1.305909		-3.578701		15.413040		93.563876		0.000595		0.643190		0.441466		54.584939		-5.321159		-2.127299		-105.967013		11.968769		-9.420216		17.966412		49.122168		3.658800		-3.507503		-98.418252		24.279792		-16.969058		15.267417		-59.064118		-1.946358		-5.013185		-0.754301		3.098476		-2.699410		-4.606204		-47.503433		-15.595812		67.736328		87.380810		-28.009190		3.657483		41.007506		-6.971134		-47.738529		-15.153314		73.307966		117.210407		-18.922902		9.964770		90.000210		
1.308561		-3.673029		15.709062		93.550967		0.000678		0.637985		0.440385		55.186109		-5.214262		-1.750778		-107.259720		11.534129		-9.228072		18.384910		49.488156		3.660310		-3.663696		-99.632156		24.339107		-17.016605		15.486287		-59.862079		-2.013867		-4.988108		-0.134506		3.237892		-2.864588		-1.365137		-47.740256		-14.166938		67.539511		87.920237		-28.103559		3.480984		40.933530		-3.847841		-47.874757		-14.018021		73.442527		117.807880		-18.689165		9.924282		90.000210		
1.311212		-3.735826		15.992549		93.560608		0.000763		0.632815		0.439299		55.768958		-5.112737		-1.424857		-108.520170		11.137518		-8.991944		18.854165		49.867655		3.646814		-3.805748		-100.829694		24.363692		-17.116854		15.724619		-60.617376		-2.049510		-4.943144		0.416232		3.364130		-3.008943		1.913139		-47.917848		-12.654875		67.263927		88.525828		-28.210093		3.269462		40.868723		-0.685104		-47.948801		-12.842397		73.592120		118.471036		-18.401334		9.876583		90.000210		
1.313864		-3.743266		16.246036		93.596131		0.000801		0.627673		0.438259		56.343318		-5.013788		-1.174980		-109.718294		10.778592		-8.699332		19.281289		50.298509		3.619466		-3.902958		-102.036961		24.339710		-17.255280		15.933917		-61.336787		-2.012211		-4.890200		1.003225		3.501052		-3.151215		5.206884		-48.050538		-11.113146		67.027282		89.132202		-28.277503		3.048780		40.798586		2.472152		-47.973443		-11.631703		73.721791		119.126569		-18.101015		9.811232		90.000210		
